<svg width="14" height="20" viewBox="0 0 14 20" fill="none" xmlns="http://www.w3.org/2000/svg">
<path d="M2.15472 1.10167L4.52061 0L7.88228 6.57502L5.61621 7.69252C5.16866 8.74169 7.41226 12.9334 8.35895 13.0025C8.43382 12.9542 10.5809 11.8959 10.5809 11.8959L14 18.5059C14 18.5059 11.7007 19.6342 11.6258 19.6692C5.08547 22.6617 -4.26581 4.45418 2.15472 1.10167ZM3.75943 2.16334L2.90841 2.58334C-1.49561 4.88501 6.38321 20.2376 10.9345 18.155L11.7422 17.76L9.85303 14.1075L8.99951 14.5242C6.36824 15.8134 2.12643 7.67502 4.79431 6.24252L5.63202 5.82835L3.75943 2.16334Z" fill="black"/>
</svg>
